# File created by Blade
# Date/Time:  Wed Apr 08 17:35:25 2015
# Frame Rate: 120.000 fps
#------------------------------------------------------
:FULLY-SPECIFIED
:DEGREES
1468
root 9.315556 37.458539 4.103680 158.921936 -68.529569 -116.695869
Spine -38.413333 4.739612 11.892922
Head 33.046762 -9.802017 10.173691
LeftShoulder -8.919821 23.753429 14.707138
LeftArm 22.812975 30.355408 -74.168916
LeftForeArm 18.954056 -0.000000 29.740790
LeftHand -12.922229 -0.000000 -10.378646
LeftHandThumb1 -26.253704 0.000000 33.147579
RightShoulder -41.102554 -52.256320 22.245592
RightArm 56.186167 -22.724817 46.087218
RightForeArm 7.124803 -0.000000 23.824394
RightHand 0.048504 -0.000000 20.286329
RightHandThumb1 -24.326973 -0.000000 -32.862282
LeftUpLeg -54.809779 20.836404 -5.355654
LeftLeg 21.440124 -0.000000 -0.000000
LeftFoot -11.473077 19.759067 -2.996081
LeftToeBase -0.065184 -0.000000 0.000000
RightUpLeg -131.634498 -2.467819 38.977706
RightLeg 104.851757 -0.000000 -0.000000
RightFoot -20.475582 -21.200483 12.482886
RightToeBase -19.590264 -0.000000 0.000000
1469
root 9.332181 37.462463 4.113455 159.367956 -68.344531 -117.116520
Spine -38.354965 4.883619 11.776679
Head 32.764337 -10.038710 10.259034
LeftShoulder -8.931768 23.780637 14.745956
LeftArm 22.797208 30.445423 -74.128765
LeftForeArm 18.954394 0.000000 29.820737
LeftHand -12.904435 -0.000000 -10.401066
LeftHandThumb1 -26.253704 0.000000 33.147579
RightShoulder -41.069404 -52.220343 22.277258
RightArm 56.187925 -22.648580 46.178900
RightForeArm 6.963935 -0.000000 23.783160
RightHand 0.083173 -0.000000 19.808047
RightHandThumb1 -24.326973 -0.000000 -32.862282
LeftUpLeg -54.885348 20.993034 -5.406838
LeftLeg 21.460601 -0.000000 -0.000000
LeftFoot -11.484294 19.827611 -3.050247
LeftToeBase -0.034953 -0.000000 0.000000
RightUpLeg -131.595538 -2.701596 38.816860
RightLeg 104.645635 -0.000000 -0.000000
RightFoot -20.887666 -22.057010 12.118825
RightToeBase -20.306751 -0.000000 0.000000
1470
root 9.349014 37.466260 4.124787 159.874355 -68.146124 -117.602765
Spine -38.291263 5.020012 11.664155
Head 32.514311 -10.227091 10.350865
LeftShoulder -8.905168 23.795082 14.783767
LeftArm 22.690830 30.494367 -74.142654
LeftForeArm 18.955214 0.000000 29.914192
LeftHand -12.899147 0.000000 -10.353972
LeftHandThumb1 -26.253704 0.000000 33.147579
RightShoulder -41.059963 -52.208434 22.335745
RightArm 56.262366 -22.556658 46.212881
RightForeArm 6.924340 -0.000000 23.709623
RightHand 0.129716 -0.000000 19.421844
RightHandThumb1 -24.326973 -0.000000 -32.862282
LeftUpLeg -54.936136 21.148718 -5.463872
LeftLeg 21.450676 -0.000000 -0.000000
LeftFoot -11.494789 19.928784 -3.090530
LeftToeBase 0.002969 -0.000000 -0.000000
RightUpLeg -131.539616 -2.946851 38.602332
RightLeg 104.423330 -0.000000 -0.000000
RightFoot -21.280345 -22.642956 11.737518
RightToeBase -20.555499 -0.000000 0.000000
1471
root 9.363909 37.467560 4.137223 160.461012 -67.968101 -118.199956
Spine -38.201981 5.148907 11.487089
Head 32.263146 -10.454307 10.448491
LeftShoulder -8.881590 23.809650 14.818266
LeftArm 22.625780 30.560343 -74.093289
LeftForeArm 18.993182 -0.000000 29.982735
LeftHand -12.871411 -0.000000 -10.397585
LeftHandThumb1 -26.253704 0.000000 33.147579
RightShoulder -41.043843 -52.153138 22.397127
RightArm 56.280406 -22.469586 46.293059
RightForeArm 6.887723 -0.000000 23.646037
RightHand 0.167442 -0.000000 19.045130
RightHandThumb1 -24.326973 -0.000000 -32.862282
LeftUpLeg -54.936076 21.296382 -5.561867
LeftLeg 21.407433 -0.000000 -0.000000
LeftFoot -11.508568 20.041679 -3.119654
LeftToeBase -0.007473 -0.000000 0.000000
RightUpLeg -131.483839 -3.263876 38.263568
RightLeg 104.200612 -0.000000 -0.000000
RightFoot -21.716805 -22.947801 11.607079
RightToeBase -21.101589 -0.000000 0.000000
1472
root 9.378862 37.469321 4.147901 160.990725 -67.783109 -118.733147
Spine -38.121959 5.271258 11.336621
Head 32.032949 -10.655945 10.538634
LeftShoulder -8.846838 23.847849 14.846465
LeftArm 22.590224 30.632195 -74.028482
LeftForeArm 19.044307 0.000000 30.014888
LeftHand -12.808462 -0.000000 -10.391803
LeftHandThumb1 -26.253704 0.000000 33.147579
RightShoulder -41.036708 -52.091465 22.458972
RightArm 56.296501 -22.381656 46.377480
RightForeArm 6.923451 -0.000000 23.581737
RightHand 0.218045 -0.000000 18.682937
RightHandThumb1 -24.326973 -0.000000 -32.862282
LeftUpLeg -54.986462 21.508371 -5.710523
LeftLeg 21.395960 -0.000000 -0.000000
LeftFoot -11.523245 20.085515 -3.098464
LeftToeBase -0.042879 -0.000000 0.000000
RightUpLeg -131.429897 -3.561632 37.972979
RightLeg 103.971761 -0.000000 -0.000000
RightFoot -22.005767 -23.347581 11.393348
RightToeBase -21.617255 -0.000000 0.000000
1473
root 9.396511 37.472759 4.161092 161.533638 -67.609926 -119.231859
Spine -38.089127 5.348839 11.225191
Head 31.807233 -10.789508 10.633843
LeftShoulder -8.842183 23.882555 14.871730
LeftArm 22.524865 30.686584 -74.005763
LeftForeArm 19.081373 -0.000000 30.010465
LeftHand -12.764541 -0.000000 -10.456703
LeftHandThumb1 -26.253704 0.000000 33.147579
RightShoulder -40.968570 -52.078421 22.469489
RightArm 56.331466 -22.284532 46.443728
RightForeArm 7.014910 -0.000000 23.538721
RightHand 0.172941 -0.000000 18.305729
RightHandThumb1 -24.326973 -0.000000 -32.862282
LeftUpLeg -54.992464 21.566254 -5.726085
LeftLeg 21.308207 -0.000000 -0.000000
LeftFoot -11.538082 20.246030 -3.204308
LeftToeBase -0.032388 -0.000000 0.000000
RightUpLeg -131.424985 -3.837978 37.688229
RightLeg 103.717714 -0.000000 -0.000000
RightFoot -22.190448 -23.899229 11.166358
RightToeBase -22.232520 -0.000000 0.000000
1474
root 9.414617 37.478055 4.173054 161.973857 -67.412887 -119.631024
Spine -38.037307 5.433256 11.173246
Head 31.593449 -10.899372 10.719011
LeftShoulder -8.850974 23.917632 14.868772
LeftArm 22.486465 30.750089 -73.964608
LeftForeArm 19.125053 -0.000000 29.965247
LeftHand -12.722703 0.000000 -10.488624
LeftHandThumb1 -26.253704 0.000000 33.147579
RightShoulder -40.896817 -52.037763 22.459238
RightArm 56.346178 -22.170442 46.541435
RightForeArm 7.086816 -0.000000 23.492333
RightHand 0.149995 0.000000 18.003914
RightHandThumb1 -24.326973 -0.000000 -32.862282
LeftUpLeg -55.027014 21.676483 -5.736883
LeftLeg 21.261594 -0.000000 -0.000000
LeftFoot -11.556638 20.364153 -3.277500
LeftToeBase -0.041411 -0.000000 0.000000
RightUpLeg -131.387924 -4.096330 37.475617
RightLeg 103.427612 -0.000000 -0.000000
RightFoot -22.413966 -24.789133 10.868112
RightToeBase -22.632037 -0.000000 0.000000
1475
root 9.431183 37.483929 4.187017 162.540073 -67.185303 -120.144119
Spine -38.004209 5.556712 11.086207
Head 31.392122 -11.024877 10.803409
LeftShoulder -8.848143 23.949561 14.868146
LeftArm 22.433281 30.836502 -73.910337
LeftForeArm 19.147379 -0.000000 29.919420
LeftHand -12.793175 -0.000000 -10.442748
LeftHandThumb1 -26.253704 0.000000 33.147579
RightShoulder -40.844625 -51.998657 22.451606
RightArm 56.405358 -22.160058 46.516866
RightForeArm 7.495566 -0.000000 23.505684
RightHand 0.013956 -0.000000 17.372590
RightHandThumb1 -24.326973 -0.000000 -32.862282
LeftUpLeg -55.080829 21.840613 -5.812902
LeftLeg 21.201491 -0.000000 -0.000000
LeftFoot -11.578365 20.474110 -3.345596
LeftToeBase -0.080079 -0.000000 0.000000
RightUpLeg -131.336326 -4.322367 37.228826
RightLeg 103.127003 -0.000000 -0.000000
RightFoot -22.838903 -25.574562 10.842544
RightToeBase -22.824768 -0.000000 0.000000
1476
root 9.445945 37.490928 4.204949 163.067451 -66.971046 -120.582863
Spine -38.013536 5.668131 11.042588
Head 31.222058 -11.142084 10.860091
LeftShoulder -8.848727 24.009936 14.858910
LeftArm 22.401896 30.916996 -73.876931
LeftForeArm 19.158752 0.000000 29.829191
LeftHand -12.754988 0.000000 -10.475753
LeftHandThumb1 -26.253704 0.000000 33.147579
RightShoulder -40.797957 -51.981081 22.433815
RightArm 56.380734 -22.000420 46.707599
RightForeArm 7.284237 -0.000000 23.495893
RightHand 0.112325 -0.000000 17.239101
RightHandThumb1 -24.326973 -0.000000 -32.862282
LeftUpLeg -55.163324 21.966495 -5.873568
LeftLeg 21.144078 -0.000000 -0.000000
LeftFoot -11.588827 20.594946 -3.415846
LeftToeBase -0.143008 -0.000000 0.000000
RightUpLeg -131.332914 -4.560487 37.020038
RightLeg 102.797654 -0.000000 -0.000000
RightFoot -23.005895 -26.624945 10.580691
RightToeBase -23.619774 -0.000000 0.000000
1477
root 9.460344 37.498336 4.221830 163.553662 -66.736508 -121.005101
Spine -37.988869 5.775093 11.023663
Head 31.057281 -11.240586 10.917928
LeftShoulder -8.888489 24.072180 14.828344
LeftArm 22.418242 30.991835 -73.831047
LeftForeArm 19.206286 -0.000000 29.662628
LeftHand -12.736212 0.000000 -10.527985
LeftHandThumb1 -26.253704 0.000000 33.147579
RightShoulder -40.771943 -51.993598 22.443300
RightArm 56.425230 -21.865007 46.789910
RightForeArm 7.249335 -0.000000 23.513732
RightHand 0.153486 -0.000000 16.977005
RightHandThumb1 -24.326973 -0.000000 -32.862282
LeftUpLeg -55.226341 22.116914 -5.920406
LeftLeg 21.092097 -0.000000 -0.000000
LeftFoot -11.605503 20.722048 -3.502543
LeftToeBase -0.247805 -0.000000 0.000000
RightUpLeg -131.271970 -4.842687 36.755231
RightLeg 102.473205 -0.000000 -0.000000
RightFoot -23.377909 -27.191059 10.842962
RightToeBase -24.067777 -0.000000 0.000000
1478
root 9.476393 37.505040 4.237103 163.980252 -66.510733 -121.384046
Spine -37.939471 5.865372 11.014390
Head 30.895367 -11.344274 10.985196
LeftShoulder -8.881834 24.115030 14.828969
LeftArm 22.379264 30.964081 -73.855979
LeftForeArm 19.372037 0.000000 29.483603
LeftHand -12.621344 -0.000000 -10.687959
LeftHandThumb1 -26.253704 0.000000 33.147579
RightShoulder -40.731137 -52.003399 22.433870
RightArm 56.481202 -21.767149 46.843453
RightForeArm 7.386055 -0.000000 23.547268
RightHand 0.165217 -0.000000 16.570354
RightHandThumb1 -24.326973 -0.000000 -32.862282
LeftUpLeg -55.290350 22.252097 -5.948074
LeftLeg 21.073251 -0.000000 -0.000000
LeftFoot -11.609154 20.867908 -3.557005
LeftToeBase -0.304645 -0.000000 0.000000
RightUpLeg -131.214961 -5.112299 36.556701
RightLeg 102.106622 -0.000000 -0.000000
RightFoot -23.515158 -28.114571 10.611512
RightToeBase -24.398802 -0.000000 0.000000
1479
root 9.492287 37.511560 4.251380 164.358873 -66.282912 -121.727512
Spine -37.871841 5.945544 11.021776
Head 30.720972 -11.444231 11.047754
LeftShoulder -8.845633 24.132514 14.851828
LeftArm 22.289025 30.961924 -73.932847
LeftForeArm 19.426479 -0.000000 29.292207
LeftHand -12.671127 -0.000000 -10.696058
LeftHandThumb1 -26.253704 0.000000 33.147579
RightShoulder -40.662595 -51.977315 22.386436
RightArm 56.500904 -21.685141 46.920448
RightForeArm 7.489369 -0.000000 23.588774
RightHand 0.192355 -0.000000 16.257018
RightHandThumb1 -24.326973 -0.000000 -32.862282
LeftUpLeg -55.328642 22.370935 -5.940892
LeftLeg 21.049308 -0.000000 -0.000000
LeftFoot -11.610372 21.016186 -3.588965
LeftToeBase -0.358627 -0.000000 0.000000
RightUpLeg -131.144264 -5.405763 36.352447
RightLeg 101.748892 -0.000000 -0.000000
RightFoot -23.651421 -28.856206 10.473349
RightToeBase -24.453285 -0.000000 0.000000
1480
root 9.508807 37.519102 4.265045 164.829677 -66.030470 -122.152570
Spine -37.816070 6.038363 10.997387
Head 30.570080 -11.519462 11.143525
LeftShoulder -8.880409 24.140333 14.880647
LeftArm 22.230150 30.970868 -73.987905
LeftForeArm 19.660979 -0.000000 29.076070
LeftHand -12.610359 -0.000000 -10.850348
LeftHandThumb1 -26.253704 0.000000 33.147579
RightShoulder -40.642813 -51.951711 22.391071
RightArm 56.570585 -21.608237 46.952074
RightForeArm 7.512460 0.000000 23.622778
RightHand 0.233110 -0.000000 15.972624
RightHandThumb1 -24.326973 -0.000000 -32.862282
LeftUpLeg -55.396849 22.540104 -5.986610
LeftLeg 21.028316 -0.000000 -0.000000
LeftFoot -11.605278 21.119830 -3.632489
LeftToeBase -0.477858 -0.000000 0.000000
RightUpLeg -131.054684 -5.700973 36.048718
RightLeg 101.393865 -0.000000 -0.000000
RightFoot -23.696339 -29.391414 10.287292
RightToeBase -24.578730 -0.000000 0.000000
